#!OML:ASF G:\acrobat\cartwheel_test\acrobat_wednesday\Session 1\acrobatwednesday.ASF
:FULLY-SPECIFIED
:DEGREES
336
root 29.5677 13.6813 5.96906 -227.516 -39.2596 -406.234
lowerback 20.249 3.88172 -10.3772
upperback 3.90204 1.7418 -7.6782
thorax -7.16212 0.827139 -2.96345
lowerneck -30.3364 -0.344844 -3.32329
upperneck 12.0377 -1.76307 12.6434
head 8.83775 0.453467 4.71622
rclavicle -1.27222e-014 7.95139e-014
rhumerus 46.0521 -28.871 -7.979
rradius 41.2005
rwrist 24.4317
rhand -47.1339 366.624
rfingers 7.12502
rthumb -19.836 -22.3838
lclavicle -1.27222e-014 7.95139e-014
lhumerus 76.3262 32.2274 54.3833
lradius 16.2259
lwrist 34.2149
lhand -58.4642 -402.532
lfingers 7.12502
lthumb -30.6886 -15.0712
rfemur -7.41102 -360.538 20.2773
rtibia 21.5631
rfoot -16.5975 7.1678
rtoes -11.7762
lfemur -66.1021 25.2616 26.7488
ltibia 39.6992
lfoot 190.195 205.611
ltoes -48.6125
337
root 29.9818 13.5677 5.64585 -228.477 -42.5607 -408.56
lowerback 20.9106 4.03101 -10.7333
upperback 4.1692 1.74276 -7.66254
thorax -7.2294 0.816819 -2.77583
lowerneck -30.3253 -0.421004 -2.73223
upperneck 12.3205 -2.08118 12.2957
head 8.95145 0.29771 4.4507
rclavicle 4.13472e-014 9.22361e-014
rhumerus 46.0384 -27.9911 -11.1825
rradius 40.2522
rwrist 25.9281
rhand -46.1663 366.836
rfingers 7.12502
rthumb -18.9056 -22.265
lclavicle 4.13472e-014 9.22361e-014
lhumerus 77.3147 33.0002 59.3374
lradius 14.4675
lwrist 30.5662
lhand -57.0295 -388.135
lfingers 7.12502
lthumb -29.3197 -0.426428
rfemur -12.2238 -359.628 21.35
rtibia 20.9875
rfoot -11.5101 11.0349
rtoes 0.852028
lfemur -67.9103 23.3481 22.4219
ltibia 42.9921
lfoot 176.267 212.045
ltoes -41.8095
338
root 30.3557 13.4967 5.33882 -229.716 -45.8978 -409.919
lowerback 21.7437 3.76257 -11.1035
upperback 4.4642 1.25387 -7.18462
thorax -7.34102 0.590258 -1.93197
lowerneck -29.75 -0.367668 -3.01183
upperneck 11.7535 -1.86368 12.3884
head 8.64849 0.358348 4.53466
rclavicle -1.01778e-013 -1.55847e-013
rhumerus 45.958 -27.5551 -12.2874
rradius 39.4326
rwrist 24.9948
rhand -45.6768 366.131
rfingers 7.12502
rthumb -18.4348 -23.0151
lclavicle -1.01778e-013 -1.55847e-013
lhumerus 76.1072 35.2819 61.1932
lradius 14.4841
lwrist 31.2705
lhand -52.7244 -377.598
lfingers 7.12502
lthumb -25.2017 10.758
rfemur -17.5108 -362.224 22.3152
rtibia 20.6202
rfoot -9.58293 14.8711
rtoes 4.53032
lfemur -69.4832 20.837 18.6541
ltibia 45.0491
lfoot 158.009 208.107
ltoes -19.3648
339
root 30.7036 13.478 5.02891 -231.131 -48.7247 -410.741
lowerback 22.7409 3.53596 -10.9459
upperback 4.78909 0.905289 -6.76012
thorax -7.48746 0.419329 -1.47598
lowerneck -29.6109 -0.172909 -2.74826
upperneck 11.5838 -1.66559 12.2283
head 8.54555 0.433988 4.45632
rclavicle -4.13472e-014 5.24792e-014
rhumerus 45.8164 -27.7452 -14.2941
rradius 38.5887
rwrist 24.754
rhand -45.9069 365.316
rfingers 7.12502
rthumb -18.6562 -23.8095
lclavicle -4.13472e-014 5.24792e-014
lhumerus 73.8552 36.7605 60.2379
lradius 15.2002
lwrist 33.2555
lhand -50.2345 -369.996
lfingers 7.12502
lthumb -22.8141 18.6747
rfemur -22.5701 -362.122 23.5714
rtibia 19.6848
rfoot -11.5877 12.1953
rtoes 1.60889
lfemur -70.7945 18.8859 15.6993
ltibia 46.7627
lfoot 161.227 213.247
ltoes -19.3285
340
root 31.0217 13.5215 4.69883 -232.635 -51.0774 -411.264
lowerback 23.9356 3.65185 -11.1756
upperback 5.0763 0.921784 -5.87698
thorax -7.79915 0.438563 -0.407984
lowerneck -29.1383 -0.566454 -3.64686
upperneck 11.4405 -1.93261 12.7181
head 8.46253 0.296956 4.72335
rclavicle 1.24042e-013 -2.22639e-014
rhumerus 45.7657 -28.1469 -16.4344
rradius 37.9213
rwrist 24.4908
rhand -46.3247 363.31
rfingers 7.12502
rthumb -19.058 -25.7759
lclavicle 1.24042e-013 -2.22639e-014
lhumerus 71.7653 37.6835 59.2146
lradius 16.0715
lwrist 35.0812
lhand -49.0913 -366.784
lfingers 7.12502
lthumb -21.7167 22.0182
rfemur -27.5656 -360.469 24.654
rtibia 19.0364
rfoot -10.3981 9.62759
rtoes -12.5522
lfemur -72.8539 17.9587 13.6703
ltibia 50.3857
lfoot 165.975 216.575
ltoes -16.3857
